<svg width="96" height="24" viewBox="0 0 96 24" fill="none" xmlns="http://www.w3.org/2000/svg">
<path d="M78.707 15.3271C77.7969 15.3271 76.9502 15.1716 76.1668 14.8606C75.3834 14.538 74.7959 14.2039 74.4042 13.8583V11.2318C74.6346 11.4622 74.9687 11.7271 75.4065 12.0266C75.8558 12.3146 76.3742 12.5681 76.9617 12.787C77.5492 13.0058 78.131 13.1153 78.707 13.1153C79.4903 13.1153 80.0778 12.977 80.4695 12.7006C80.8612 12.4126 81.057 12.067 81.057 11.6638C81.057 11.3297 80.9361 11.0532 80.6942 10.8343C80.4522 10.6154 79.9914 10.4138 79.3118 10.2295L77.722 9.79753C76.4548 9.45193 75.5562 9.00265 75.0263 8.44969C74.4964 7.88521 74.2314 7.18825 74.2314 6.35881C74.2314 5.66761 74.4388 5.05129 74.8535 4.50985C75.2798 3.96841 75.85 3.55369 76.5642 3.26569C77.29 2.96617 78.0849 2.81641 78.9489 2.81641C79.7322 2.81641 80.4695 2.93161 81.1607 3.16201C81.8519 3.39241 82.4106 3.66889 82.8369 3.99145V6.60073C82.4222 6.19753 81.8634 5.83465 81.1607 5.51208C80.4695 5.18952 79.7553 5.02825 79.018 5.02825C78.3383 5.02825 77.7796 5.13769 77.3418 5.35657C76.9156 5.57545 76.7025 5.86345 76.7025 6.22057C76.7025 6.54313 76.8465 6.80233 77.1345 6.99817C77.434 7.18249 77.9351 7.37257 78.6378 7.56841L80.2103 8.00041C81.4199 8.33449 82.2724 8.79529 82.7678 9.38281C83.2746 9.97033 83.5281 10.6961 83.5281 11.5601C83.5281 12.2398 83.3322 12.8676 82.9406 13.4436C82.5489 14.0081 81.9844 14.4631 81.2471 14.8087C80.5214 15.1543 79.6746 15.3271 78.707 15.3271Z" fill="black" style="fill:black;fill-opacity:1;"/>
<path d="M64.4912 15.3271C63.3277 15.3271 62.2621 15.0506 61.2944 14.4977C60.3267 13.9447 59.5606 13.1902 58.9961 12.234C58.4317 11.2778 58.1494 10.2238 58.1494 9.07177C58.1494 7.91977 58.4317 6.86569 58.9961 5.90953C59.5606 4.95337 60.3267 4.19881 61.2944 3.64585C62.2621 3.09289 63.3277 2.81641 64.4912 2.81641C65.6432 2.81641 66.703 3.09289 67.6707 3.64585C68.6384 4.19881 69.4045 4.95337 69.9689 5.90953C70.5334 6.86569 70.8157 7.91977 70.8157 9.07177C70.8157 10.2238 70.5334 11.2778 69.9689 12.234C69.4045 13.1902 68.6384 13.9447 67.6707 14.4977C66.703 15.0506 65.6432 15.3271 64.4912 15.3271ZM60.6032 9.07177C60.6032 9.78601 60.7702 10.4484 61.1043 11.059C61.4384 11.658 61.8992 12.1361 62.4867 12.4932C63.0857 12.8503 63.7539 13.0289 64.4912 13.0289C65.2285 13.0289 65.8909 12.8561 66.4784 12.5105C67.0659 12.1534 67.5267 11.6753 67.8608 11.0762C68.1949 10.4657 68.3619 9.79753 68.3619 9.07177C68.3619 8.34601 68.1949 7.68361 67.8608 7.08457C67.5267 6.47401 67.0659 5.99593 66.4784 5.65033C65.8909 5.29321 65.2285 5.11465 64.4912 5.11465C63.7539 5.11465 63.0857 5.29321 62.4867 5.65033C61.8992 6.00745 61.4384 6.49129 61.1043 7.10185C60.7702 7.70089 60.6032 8.35753 60.6032 9.07177Z" fill="black" style="fill:black;fill-opacity:1;"/>
<path d="M45.0703 3.02344H54.5916V5.28712H47.4722V7.86184H53.9004V10.1255H47.4722V12.8558H54.5916V15.1194H45.0703V3.02344Z" fill="black" style="fill:black;fill-opacity:1;"/>
<path d="M38.1181 3.02304H40.52V15.4819L31.9664 8.01696V15.119H29.5645V2.66016L38.1181 10.1251V3.02304Z" fill="black" style="fill:black;fill-opacity:1;"/>
<path d="M94.4346 21.1176V18.7656H95.9567V19.1016H94.7874V19.7535H95.8155V20.0861H94.7874V20.7816H95.9567V21.1176H94.4346Z" fill="black" style="fill:black;fill-opacity:1;"/>
<path d="M92.7409 21.1176V19.1016H91.9883V18.7656H93.8464V19.1016H93.0971V21.1176H92.7409Z" fill="black" style="fill:black;fill-opacity:1;"/>
<path d="M91.0488 21.1176V18.7656H91.4016V21.1176H91.0488Z" fill="black" style="fill:black;fill-opacity:1;"/>
<path d="M89.3151 21.1579C88.7641 21.1579 88.3643 20.7951 88.3643 20.1735V18.7656H88.7171V20.1768C88.7171 20.5834 88.9523 20.8119 89.3151 20.8119C89.6814 20.8119 89.9166 20.5834 89.9166 20.1768V18.7656H90.2694V20.1735C90.2694 20.7951 89.8695 21.1579 89.3151 21.1579Z" fill="black" style="fill:black;fill-opacity:1;"/>
<path d="M86.8875 21.1592C86.5347 21.1592 86.2491 20.9845 86.1281 20.8803V20.4704C86.2692 20.6082 86.5548 20.8333 86.8875 20.8333C87.2201 20.8333 87.3612 20.6619 87.3612 20.4805C87.3612 20.2957 87.2504 20.1848 86.9312 20.0874L86.7564 20.0336C86.3432 19.9026 86.1113 19.7312 86.1113 19.3784C86.1113 18.992 86.4675 18.7266 86.9177 18.7266C87.2134 18.7266 87.462 18.8341 87.6099 18.9483V19.3482C87.462 19.2138 87.2235 19.0525 86.9278 19.0525C86.6724 19.0525 86.4742 19.1701 86.4742 19.3683C86.4742 19.5363 86.5952 19.6102 86.8875 19.6976L87.0588 19.7514C87.4856 19.8858 87.7241 20.0907 87.7241 20.4603C87.7241 20.8467 87.415 21.1592 86.8875 21.1592Z" fill="black" style="fill:black;fill-opacity:1;"/>
<path d="M83.5416 21.1592C82.8696 21.1592 82.332 20.6216 82.332 19.9429C82.332 19.2642 82.8696 18.7266 83.5416 18.7266C83.9045 18.7266 84.1767 18.8475 84.348 18.9651V19.3851C84.1868 19.2406 83.9314 19.0693 83.5551 19.0693C83.0544 19.0693 82.7016 19.4624 82.7016 19.9429C82.7016 20.4234 83.0578 20.8165 83.5416 20.8165C84.0524 20.8165 84.2472 20.4872 84.2573 20.1546H83.461V19.8219H84.5967C84.721 20.6149 84.2573 21.1592 83.5416 21.1592Z" fill="black" style="fill:black;fill-opacity:1;"/>
<path d="M81.6598 21.1912L80.0403 19.5314V21.1173H79.6875V18.6914L81.307 20.3512V18.7653H81.6598V21.1912Z" fill="black" style="fill:black;fill-opacity:1;"/>
<path d="M78.5293 21.1176V18.7656H78.8821V21.1176H78.5293Z" fill="black" style="fill:black;fill-opacity:1;"/>
<path d="M76.8356 21.1176V19.1016H76.083V18.7656H77.9411V19.1016H77.1918V21.1176H76.8356Z" fill="black" style="fill:black;fill-opacity:1;"/>
<path d="M73.7344 21.1173L74.8835 18.6914L76.0293 21.1173H75.6496L75.3841 20.5461H74.3829L74.1174 21.1173H73.7344ZM74.524 20.2101H75.2397L74.8835 19.4172L74.524 20.2101Z" fill="black" style="fill:black;fill-opacity:1;"/>
<path d="M71.6035 21.1176V18.7656H72.3427C72.9038 18.7656 73.2096 19.0479 73.2096 19.4645C73.2096 19.8173 72.9845 20.0693 72.5746 20.1399L73.3709 21.1176H72.9274L72.1478 20.16H71.9563V21.1176H71.6035ZM72.3562 19.824C72.6552 19.824 72.8467 19.6997 72.8467 19.4645C72.8467 19.2259 72.6552 19.1016 72.3562 19.1016H71.9563V19.824H72.3562Z" fill="black" style="fill:black;fill-opacity:1;"/>
<path d="M69.3887 21.1176V18.7656H70.9108V19.1016H69.7415V19.7535H70.7696V20.0861H69.7415V20.7816H70.9108V21.1176H69.3887Z" fill="black" style="fill:black;fill-opacity:1;"/>
<path d="M67.082 21.1176V18.7656H67.8616C68.4798 18.7656 68.7654 19.0949 68.7654 19.5082C68.7654 19.9215 68.4798 20.2474 67.8616 20.2474H67.4348V21.1176H67.082ZM67.8784 19.9114C68.2446 19.9114 68.4025 19.7434 68.4025 19.5082C68.4025 19.273 68.2446 19.1016 67.8784 19.1016H67.4348V19.9114H67.8784Z" fill="black" style="fill:black;fill-opacity:1;"/>
<path d="M65.2018 21.1592C64.5298 21.1592 63.9922 20.6216 63.9922 19.9429C63.9922 19.2642 64.5298 18.7266 65.2018 18.7266C65.8738 18.7266 66.4114 19.2642 66.4114 19.9429C66.4114 20.6216 65.8738 21.1592 65.2018 21.1592ZM65.2018 20.8198C65.6856 20.8198 66.0451 20.4234 66.0451 19.9429C66.0451 19.4624 65.6856 19.0659 65.2018 19.0659C64.7179 19.0659 64.3618 19.4624 64.3618 19.9429C64.3618 20.4234 64.7179 20.8198 65.2018 20.8198Z" fill="black" style="fill:black;fill-opacity:1;"/>
<path d="M60.9697 21.1176V18.7656H62.4918V19.1016H61.3225V19.7535H62.3507V20.0861H61.3225V20.7816H62.4918V21.1176H60.9697Z" fill="black" style="fill:black;fill-opacity:1;"/>
<path d="M59.5949 21.1592C58.8893 21.1592 58.3584 20.6216 58.3584 19.9429C58.3584 19.2642 58.8893 18.7266 59.5949 18.7266C59.8704 18.7266 60.1056 18.7971 60.2971 18.908V19.3045C60.1426 19.1835 59.9074 19.0726 59.6218 19.0726C59.0875 19.0726 58.728 19.4624 58.728 19.9429C58.728 20.4234 59.0875 20.8131 59.6218 20.8131C59.9074 20.8131 60.1426 20.7056 60.2971 20.5779V20.9778C60.1056 21.0886 59.8704 21.1592 59.5949 21.1592Z" fill="black" style="fill:black;fill-opacity:1;"/>
<path d="M56.1963 21.1176V18.7656H56.9355C57.4966 18.7656 57.8024 19.0479 57.8024 19.4645C57.8024 19.8173 57.5772 20.0693 57.1673 20.1399L57.9636 21.1176H57.5201L56.7406 20.16H56.5491V21.1176H56.1963ZM56.9489 19.824C57.248 19.824 57.4395 19.6997 57.4395 19.4645C57.4395 19.2259 57.248 19.1016 56.9489 19.1016H56.5491V19.824H56.9489Z" fill="black" style="fill:black;fill-opacity:1;"/>
<path d="M53.9814 21.1176V18.7656H55.5035V19.1016H54.3342V19.7535H55.3624V20.0861H54.3342V20.7816H55.5035V21.1176H53.9814Z" fill="black" style="fill:black;fill-opacity:1;"/>
<path d="M50.8223 21.1176V18.7656H51.1751L51.9983 19.9584L52.8215 18.7656H53.1743V21.1176H52.8215V19.357L51.9983 20.5464L51.1751 19.357V21.1176H50.8223Z" fill="black" style="fill:black;fill-opacity:1;"/>
<path d="M47.6621 21.1176V18.7656H48.0149L48.8381 19.9584L49.6613 18.7656H50.0141V21.1176H49.6613V19.357L48.8381 20.5464L48.0149 19.357V21.1176H47.6621Z" fill="black" style="fill:black;fill-opacity:1;"/>
<path d="M45.7819 21.1592C45.1099 21.1592 44.5723 20.6216 44.5723 19.9429C44.5723 19.2642 45.1099 18.7266 45.7819 18.7266C46.4539 18.7266 46.9915 19.2642 46.9915 19.9429C46.9915 20.6216 46.4539 21.1592 45.7819 21.1592ZM45.7819 20.8198C46.2657 20.8198 46.6252 20.4234 46.6252 19.9429C46.6252 19.4624 46.2657 19.0659 45.7819 19.0659C45.298 19.0659 44.9419 19.4624 44.9419 19.9429C44.9419 20.4234 45.298 20.8198 45.7819 20.8198Z" fill="black" style="fill:black;fill-opacity:1;"/>
<path d="M43.3712 21.1592C42.6656 21.1592 42.1348 20.6216 42.1348 19.9429C42.1348 19.2642 42.6656 18.7266 43.3712 18.7266C43.6468 18.7266 43.882 18.7971 44.0735 18.908V19.3045C43.9189 19.1835 43.6837 19.0726 43.3981 19.0726C42.8639 19.0726 42.5044 19.4624 42.5044 19.9429C42.5044 20.4234 42.8639 20.8131 43.3981 20.8131C43.6837 20.8131 43.9189 20.7056 44.0735 20.5779V20.9778C43.882 21.0886 43.6468 21.1592 43.3712 21.1592Z" fill="black" style="fill:black;fill-opacity:1;"/>
<path d="M40.1104 21.1176V18.7656H41.6324V19.1016H40.4632V19.7535H41.4913V20.0861H40.4632V20.7816H41.6324V21.1176H40.1104Z" fill="black" style="fill:black;fill-opacity:1;"/>
<path d="M37.5739 21.1176V19.1016H36.8213V18.7656H38.6794V19.1016H37.9301V21.1176H37.5739Z" fill="black" style="fill:black;fill-opacity:1;"/>
<path d="M34.2803 21.1176L35.1505 19.9349L34.2904 18.7656H34.7238L35.3891 19.6661L36.051 18.7656H36.4844L35.6243 19.9349L36.4945 21.1176H36.0611L35.3891 20.2071L34.7137 21.1176H34.2803Z" fill="black" style="fill:black;fill-opacity:1;"/>
<path d="M32.3281 21.1176V18.7656H33.8502V19.1016H32.6809V19.7535H33.7091V20.0861H32.6809V20.7816H33.8502V21.1176H32.3281Z" fill="black" style="fill:black;fill-opacity:1;"/>
<path d="M31.5211 21.1912L29.9016 19.5314V21.1173H29.5488V18.6914L31.1683 20.3512V18.7653H31.5211V21.1912Z" fill="black" style="fill:black;fill-opacity:1;"/>
<path d="M0 6C0 2.68629 2.68629 0 6 0H18C21.3137 0 24 2.68629 24 6V18C24 21.3137 21.3137 24 18 24H6C2.68629 24 0 21.3137 0 18V6Z" fill="black" style="fill:black;fill-opacity:1;"/>
<path fill-rule="evenodd" clip-rule="evenodd" d="M11.0162 5.0954L4.14828 11.8564C3.94357 12.057 3.83984 12.3049 3.83984 12.5939V17.5645C3.83984 17.9859 4.07413 18.3448 4.45606 18.5108C4.83799 18.6767 5.25666 18.6004 5.55754 18.3108L11.1537 12.9213C11.0643 13.0746 11.0191 13.2474 11.0191 13.438V18.408C11.0191 18.8288 11.253 19.1884 11.6349 19.3544C12.0168 19.5202 12.4357 19.444 12.7361 19.1543L19.8434 12.3101C20.0652 12.0962 20.1729 11.8237 20.1586 11.5133L19.9193 6.62669C19.8994 6.21289 19.657 5.87087 19.2764 5.71887C18.8963 5.56805 18.489 5.65078 18.1949 5.93909L12.8819 11.169C12.9547 11.0181 12.9878 10.8504 12.9791 10.6693L12.7412 5.7826C12.7206 5.36933 12.4782 5.02678 12.0982 4.87478C11.7176 4.72396 11.3095 4.80669 11.0164 5.09553" fill="white" style="fill:white;fill-opacity:1;"/>
</svg>
